<mxfile host="app.diagrams.net" agent="Mozilla/5.0 (Windows NT 10.0; Win64; x64) AppleWebKit/537.36 (KHTML, like Gecko) Chrome/132.0.0.0 Safari/537.36 Edg/132.0.0.0" version="26.0.10">
  <diagram name="RAG" id="4Lx7l5kmNal4aG6bvIwU">
    <mxGraphModel dx="1008" dy="681" grid="1" gridSize="10" guides="1" tooltips="1" connect="1" arrows="1" fold="1" page="1" pageScale="1" pageWidth="1169" pageHeight="827" math="0" shadow="0">
      <root>
        <mxCell id="0" />
        <mxCell id="1" parent="0" />
        <mxCell id="uSreECFJaTcsBSXWi2zq-1" value="" style="sketch=0;outlineConnect=0;fontColor=#232F3E;gradientColor=none;fillColor=#232F3D;strokeColor=none;dashed=0;verticalLabelPosition=bottom;verticalAlign=top;align=center;html=1;fontSize=12;fontStyle=0;aspect=fixed;pointerEvents=1;shape=mxgraph.aws4.user;" vertex="1" parent="1">
          <mxGeometry x="80" y="50" width="40" height="40" as="geometry" />
        </mxCell>
        <mxCell id="uSreECFJaTcsBSXWi2zq-2" value="&lt;b&gt;&lt;font style=&quot;font-size: 20px;&quot;&gt;LLM&lt;/font&gt;&lt;/b&gt;" style="text;html=1;align=center;verticalAlign=middle;whiteSpace=wrap;rounded=0;" vertex="1" parent="1">
          <mxGeometry x="200" y="55" width="60" height="30" as="geometry" />
        </mxCell>
        <mxCell id="uSreECFJaTcsBSXWi2zq-3" value="" style="endArrow=none;html=1;rounded=0;" edge="1" parent="1">
          <mxGeometry width="50" height="50" relative="1" as="geometry">
            <mxPoint x="100" y="490" as="sourcePoint" />
            <mxPoint x="100" y="100" as="targetPoint" />
          </mxGeometry>
        </mxCell>
        <mxCell id="uSreECFJaTcsBSXWi2zq-4" value="" style="endArrow=none;html=1;rounded=0;" edge="1" parent="1" source="uSreECFJaTcsBSXWi2zq-5">
          <mxGeometry width="50" height="50" relative="1" as="geometry">
            <mxPoint x="229.5" y="490" as="sourcePoint" />
            <mxPoint x="229.5" y="100" as="targetPoint" />
          </mxGeometry>
        </mxCell>
        <mxCell id="uSreECFJaTcsBSXWi2zq-7" value="" style="endArrow=none;html=1;rounded=0;" edge="1" parent="1" target="uSreECFJaTcsBSXWi2zq-5">
          <mxGeometry width="50" height="50" relative="1" as="geometry">
            <mxPoint x="229.5" y="490" as="sourcePoint" />
            <mxPoint x="229.5" y="100" as="targetPoint" />
          </mxGeometry>
        </mxCell>
        <mxCell id="uSreECFJaTcsBSXWi2zq-5" value="" style="rounded=0;whiteSpace=wrap;html=1;" vertex="1" parent="1">
          <mxGeometry x="215" y="130" width="30" height="280" as="geometry" />
        </mxCell>
        <mxCell id="uSreECFJaTcsBSXWi2zq-8" value="" style="endArrow=classic;html=1;rounded=0;entryX=0;entryY=0;entryDx=0;entryDy=0;" edge="1" parent="1" target="uSreECFJaTcsBSXWi2zq-5">
          <mxGeometry width="50" height="50" relative="1" as="geometry">
            <mxPoint x="100" y="130" as="sourcePoint" />
            <mxPoint x="420" y="260" as="targetPoint" />
          </mxGeometry>
        </mxCell>
        <mxCell id="uSreECFJaTcsBSXWi2zq-12" value="&lt;font style=&quot;font-size: 12px;&quot;&gt;Request&lt;/font&gt;" style="edgeLabel;html=1;align=center;verticalAlign=middle;resizable=0;points=[];" vertex="1" connectable="0" parent="uSreECFJaTcsBSXWi2zq-8">
          <mxGeometry x="0.1068" y="3" relative="1" as="geometry">
            <mxPoint as="offset" />
          </mxGeometry>
        </mxCell>
        <mxCell id="uSreECFJaTcsBSXWi2zq-10" value="" style="endArrow=classic;html=1;rounded=0;exitX=0;exitY=1;exitDx=0;exitDy=0;" edge="1" parent="1" source="uSreECFJaTcsBSXWi2zq-5">
          <mxGeometry width="50" height="50" relative="1" as="geometry">
            <mxPoint x="370" y="310" as="sourcePoint" />
            <mxPoint x="100" y="410" as="targetPoint" />
          </mxGeometry>
        </mxCell>
        <mxCell id="uSreECFJaTcsBSXWi2zq-13" value="&lt;font style=&quot;font-size: 12px;&quot;&gt;Response&lt;/font&gt;" style="edgeLabel;html=1;align=center;verticalAlign=middle;resizable=0;points=[];" vertex="1" connectable="0" parent="uSreECFJaTcsBSXWi2zq-10">
          <mxGeometry x="0.068" y="3" relative="1" as="geometry">
            <mxPoint as="offset" />
          </mxGeometry>
        </mxCell>
      </root>
    </mxGraphModel>
  </diagram>
</mxfile>
